HIERARCHY
ROOT Root
{
  OFFSET 0.0 0.0 0.0
  CHANNELS 6 Xposition Yposition Zposition Zrotation Yrotation Xrotation
  JOINT Hips
  {
    OFFSET 0.0 100.0 0.0
    CHANNELS 6 Xposition Yposition Zposition Zrotation Yrotation Xrotation
    JOINT Spine1
    {
      OFFSET 5.003913 -0.037094 -0.013727
      CHANNELS 3 Zrotation Yrotation Xrotation
      JOINT Spine2
      {
        OFFSET 7.125363 -1e-06 0.0
        CHANNELS 3 Zrotation Yrotation Xrotation
        JOINT Chest
        {
          OFFSET 7.594027 1e-06 0.0
          CHANNELS 3 Zrotation Yrotation Xrotation
          JOINT Neck1
          {
            OFFSET 26.313086 -0.460272 -0.181672
            CHANNELS 3 Zrotation Yrotation Xrotation
            JOINT Neck2
            {
              OFFSET 8.045911 0.0 0.0
              CHANNELS 3 Zrotation Yrotation Xrotation
              JOINT Head
              {
                OFFSET 6.432774 0.0 0.0
                CHANNELS 3 Zrotation Yrotation Xrotation
                JOINT HeadEnd
                {
                  OFFSET 16.169773 0.06451 0.00362
                  CHANNELS 3 Zrotation Yrotation Xrotation
                }
                JOINT Jaw
                {
                  OFFSET 0.108741 3.12938 0.002639
                  CHANNELS 3 Zrotation Yrotation Xrotation
                }
                JOINT LeftEye
                {
                  OFFSET 4.45173 8.166359 3.206392
                  CHANNELS 3 Zrotation Yrotation Xrotation
                }
                JOINT RightEye
                {
                  OFFSET 4.436895 8.135758 -3.222429
                  CHANNELS 3 Zrotation Yrotation Xrotation
                }
              }
            }
          }
          JOINT LeftShoulder
          {
            OFFSET 23.218927 5.195579 1.621656
            CHANNELS 3 Zrotation Yrotation Xrotation
            JOINT LeftArm
            {
              OFFSET 15.902118 2e-06 -2e-06
              CHANNELS 3 Zrotation Yrotation Xrotation
              JOINT LeftForeArm
              {
                OFFSET 28.739307 0.0 -1e-06
                CHANNELS 3 Zrotation Yrotation Xrotation
                JOINT LeftHand
                {
                  OFFSET 27.093981 -4e-06 0.0
                  CHANNELS 3 Zrotation Yrotation Xrotation
                  JOINT LeftHandThumb1
                  {
                    OFFSET 2.276781 3.380274 0.83384
                    CHANNELS 3 Zrotation Yrotation Xrotation
                    JOINT LeftHandThumb2
                    {
                      OFFSET 4.705309 -1e-06 -1e-06
                      CHANNELS 3 Zrotation Yrotation Xrotation
                      JOINT LeftHandThumb3
                      {
                        OFFSET 2.798515 0.0 3e-06
                        CHANNELS 3 Zrotation Yrotation Xrotation
                        JOINT LeftHandThumbEnd
                        {
                          OFFSET 3.180793 4e-06 -4e-06
                          CHANNELS 3 Zrotation Yrotation Xrotation
                        }
                      }
                    }
                  }
                  JOINT LeftHandIndex1
                  {
                    OFFSET 3.247786 2.352677 0.137192
                    CHANNELS 3 Zrotation Yrotation Xrotation
                    JOINT LeftHandIndex2
                    {
                      OFFSET 6.367095 1e-06 0.0
                      CHANNELS 3 Zrotation Yrotation Xrotation
                      JOINT LeftHandIndex3
                      {
                        OFFSET 3.662364 0.0 0.0
                        CHANNELS 3 Zrotation Yrotation Xrotation
                        JOINT LeftHandIndex4
                        {
                          OFFSET 2.329242 4e-06 -4e-06
                          CHANNELS 3 Zrotation Yrotation Xrotation
                          JOINT LeftHandIndexEnd
                          {
                            OFFSET 2.767823 1e-06 0.0
                            CHANNELS 3 Zrotation Yrotation Xrotation
                          }
                        }
                      }
                    }
                  }
                  JOINT LeftHandMiddle1
                  {
                    OFFSET 3.163612 0.945023 -0.406112
                    CHANNELS 3 Zrotation Yrotation Xrotation
                    JOINT LeftHandMiddle2
                    {
                      OFFSET 6.276789 3e-06 0.0
                      CHANNELS 3 Zrotation Yrotation Xrotation
                      JOINT LeftHandMiddle3
                      {
                        OFFSET 4.35652 -1e-06 4e-06
                        CHANNELS 3 Zrotation Yrotation Xrotation
                        JOINT LeftHandMiddle4
                        {
                          OFFSET 2.996877 0.0 8e-06
                          CHANNELS 3 Zrotation Yrotation Xrotation
                          JOINT LeftHandMiddleEnd
                          {
                            OFFSET 2.323256 3e-06 -4e-06
                            CHANNELS 3 Zrotation Yrotation Xrotation
                          }
                        }
                      }
                    }
                  }
                  JOINT LeftHandRing1
                  {
                    OFFSET 2.882606 -0.309162 0.107445
                    CHANNELS 3 Zrotation Yrotation Xrotation
                    JOINT LeftHandRing2
                    {
                      OFFSET 6.033198 0.0 4e-06
                      CHANNELS 3 Zrotation Yrotation Xrotation
                      JOINT LeftHandRing3
                      {
                        OFFSET 4.350578 3e-06 0.0
                        CHANNELS 3 Zrotation Yrotation Xrotation
                        JOINT LeftHandRing4
                        {
                          OFFSET 2.651321 2e-06 -7e-06
                          CHANNELS 3 Zrotation Yrotation Xrotation
                          JOINT LeftHandRingEnd
                          {
                            OFFSET 1.937663 1e-06 -4e-06
                            CHANNELS 3 Zrotation Yrotation Xrotation
                          }
                        }
                      }
                    }
                  }
                  JOINT LeftHandPinky1
                  {
                    OFFSET 2.865315 -1.525436 0.575687
                    CHANNELS 3 Zrotation Yrotation Xrotation
                    JOINT LeftHandPinky2
                    {
                      OFFSET 5.54936 1e-06 -8e-06
                      CHANNELS 3 Zrotation Yrotation Xrotation
                      JOINT LeftHandPinky3
                      {
                        OFFSET 3.070974 0.0 -4e-06
                        CHANNELS 3 Zrotation Yrotation Xrotation
                        JOINT LeftHandPinky4
                        {
                          OFFSET 1.549672 1e-06 0.0
                          CHANNELS 3 Zrotation Yrotation Xrotation
                          JOINT LeftHandPinkyEnd
                          {
                            OFFSET 1.952123 0.0 0.0
                            CHANNELS 3 Zrotation Yrotation Xrotation
                          }
                        }
                      }
                    }
                  }
                }
              }
            }
          }
          JOINT RightShoulder
          {
            OFFSET 23.161716 5.296122 -1.380114
            CHANNELS 3 Zrotation Yrotation Xrotation
            JOINT RightArm
            {
              OFFSET -16.027195 -2e-06 1.1e-05
              CHANNELS 3 Zrotation Yrotation Xrotation
              JOINT RightForeArm
              {
                OFFSET -28.736639 4e-06 2e-06
                CHANNELS 3 Zrotation Yrotation Xrotation
                JOINT RightHand
                {
                  OFFSET -27.133619 6e-06 0.0
                  CHANNELS 3 Zrotation Yrotation Xrotation
                  JOINT RightHandThumb1
                  {
                    OFFSET -2.274328 -3.351035 -0.83067
                    CHANNELS 3 Zrotation Yrotation Xrotation
                    JOINT RightHandThumb2
                    {
                      OFFSET -4.703594 -3e-06 2e-06
                      CHANNELS 3 Zrotation Yrotation Xrotation
                      JOINT RightHandThumb3
                      {
                        OFFSET -2.794935 -4e-06 -3e-06
                        CHANNELS 3 Zrotation Yrotation Xrotation
                        JOINT RightHandThumbEnd
                        {
                          OFFSET -3.183852 4e-06 1e-06
                          CHANNELS 3 Zrotation Yrotation Xrotation
                        }
                      }
                    }
                  }
                  JOINT RightHandIndex1
                  {
                    OFFSET -3.253496 -2.33755 -0.127667
                    CHANNELS 3 Zrotation Yrotation Xrotation
                    JOINT RightHandIndex2
                    {
                      OFFSET -6.344434 0.0 0.0
                      CHANNELS 3 Zrotation Yrotation Xrotation
                      JOINT RightHandIndex3
                      {
                        OFFSET -3.654871 0.0 -8e-06
                        CHANNELS 3 Zrotation Yrotation Xrotation
                        JOINT RightHandIndex4
                        {
                          OFFSET -2.327586 -1e-06 0.0
                          CHANNELS 3 Zrotation Yrotation Xrotation
                          JOINT RightHandIndexEnd
                          {
                            OFFSET -2.770001 3e-06 8e-06
                            CHANNELS 3 Zrotation Yrotation Xrotation
                          }
                        }
                      }
                    }
                  }
                  JOINT RightHandMiddle1
                  {
                    OFFSET -3.168223 -0.944764 0.411762
                    CHANNELS 3 Zrotation Yrotation Xrotation
                    JOINT RightHandMiddle2
                    {
                      OFFSET -6.266691 -1e-06 -4e-06
                      CHANNELS 3 Zrotation Yrotation Xrotation
                      JOINT RightHandMiddle3
                      {
                        OFFSET -4.348901 0.0 0.0
                        CHANNELS 3 Zrotation Yrotation Xrotation
                        JOINT RightHandMiddle4
                        {
                          OFFSET -3.00024 2e-06 -4e-06
                          CHANNELS 3 Zrotation Yrotation Xrotation
                          JOINT RightHandMiddleEnd
                          {
                            OFFSET -2.321477 -4e-06 -4e-06
                            CHANNELS 3 Zrotation Yrotation Xrotation
                          }
                        }
                      }
                    }
                  }
                  JOINT RightHandRing1
                  {
                    OFFSET -2.885654 0.293261 -0.119232
                    CHANNELS 3 Zrotation Yrotation Xrotation
                    JOINT RightHandRing2
                    {
                      OFFSET -6.032835 -1e-06 -4e-06
                      CHANNELS 3 Zrotation Yrotation Xrotation
                      JOINT RightHandRing3
                      {
                        OFFSET -4.33881 0.0 -4e-06
                        CHANNELS 3 Zrotation Yrotation Xrotation
                        JOINT RightHandRing4
                        {
                          OFFSET -2.654903 -4e-06 -4e-06
                          CHANNELS 3 Zrotation Yrotation Xrotation
                          JOINT RightHandRingEnd
                          {
                            OFFSET -1.935122 0.0 4e-06
                            CHANNELS 3 Zrotation Yrotation Xrotation
                          }
                        }
                      }
                    }
                  }
                  JOINT RightHandPinky1
                  {
                    OFFSET -2.866241 1.503904 -0.60527
                    CHANNELS 3 Zrotation Yrotation Xrotation
                    JOINT RightHandPinky2
                    {
                      OFFSET -5.553177 -2e-06 0.0
                      CHANNELS 3 Zrotation Yrotation Xrotation
                      JOINT RightHandPinky3
                      {
                        OFFSET -3.062664 -1e-06 -4e-06
                        CHANNELS 3 Zrotation Yrotation Xrotation
                        JOINT RightHandPinky4
                        {
                          OFFSET -1.546529 2e-06 4e-06
                          CHANNELS 3 Zrotation Yrotation Xrotation
                          JOINT RightHandPinkyEnd
                          {
                            OFFSET -1.952341 0.0 -4e-06
                            CHANNELS 3 Zrotation Yrotation Xrotation
                          }
                        }
                      }
                    }
                  }
                }
              }
            }
          }
        }
      }
    }
    JOINT LeftLeg
    {
      OFFSET -8.443107 2.567604 10.043214
      CHANNELS 3 Zrotation Yrotation Xrotation
      JOINT LeftShin
      {
        OFFSET 43.229198 1e-06 -1e-06
        CHANNELS 3 Zrotation Yrotation Xrotation
        JOINT LeftFoot
        {
          OFFSET 42.298611 1e-06 1e-06
          CHANNELS 3 Zrotation Yrotation Xrotation
          JOINT LeftToeBase
          {
            OFFSET 14.165858 1e-06 0.0
            CHANNELS 3 Zrotation Yrotation Xrotation
            JOINT LeftToeEnd
            {
              OFFSET 6.7141 -0.234461 0.0
              CHANNELS 3 Zrotation Yrotation Xrotation
            }
          }
        }
      }
    }
    JOINT RightLeg
    {
      OFFSET -8.303923 2.592729 -10.047278
      CHANNELS 3 Zrotation Yrotation Xrotation
      JOINT RightShin
      {
        OFFSET -43.369682 0.0 1e-06
        CHANNELS 3 Zrotation Yrotation Xrotation
        JOINT RightFoot
        {
          OFFSET -42.260784 4e-06 2e-06
          CHANNELS 3 Zrotation Yrotation Xrotation
          JOINT RightToeBase
          {
            OFFSET -14.222245 -2e-06 -1e-06
            CHANNELS 3 Zrotation Yrotation Xrotation
            JOINT RightToeEnd
            {
              OFFSET -6.660062 0.232574 -2e-06
              CHANNELS 3 Zrotation Yrotation Xrotation
            }
          }
        }
      }
    }
  }
}
MOTION
Frames: 5
Frame Time: 0.03333333333333333
0.0 0.0 0.0 0.0 -0.0 0.0 -2.180285 96.925903 5.553641 92.145477 15.166058 89.994057 0.640872 -0.621879 0.257154 -10.528579 -0.727153 0.766409 27.841011 -2.79153 -1.87698 27.429157 3.811643 2.335455 -2.405655 -0.728651 -2.202968 -30.724842 1.17989 -3.959568 6e-06 -0.0 0.0 0.019739 0.009593 -0.037348 0.066689 0.112687 -0.014516 0.065514 -0.094793 -0.05713 -130.826141 -75.817833 148.568176 30.42734 -57.251785 -1.530955 32.366966 0.096478 0.35686 1.204831 -5.442197 11.902321 17.636625 -26.322729 52.411201 -19.46666 -14.3956 29.410389 -1e-06 -8.774821 -1e-06 15.957088 -18.529421 6.240291 -0.609776 -1.795653 -3.889326 -4.807087 -11.046808 -2.937854 5e-06 -20.976015 -3e-06 -5.019967 -25.033558 -4.03188 6e-06 2e-06 -2e-06 -10.634532 -5.686969 -3.565587 10.573275 -17.922947 -3.113904 4e-06 -13.821205 -1e-06 -0.501775 -31.181505 -4.027019 -11.559194 -59.849159 7.563859 -13.982715 -7.150198 -2.875042 13.772729 -8.40149 -3.218241 0.347735 -34.211552 0.771651 -0.963029 -17.73337 2.62102 0.0 -1e-06 1e-06 -17.346418 -20.095215 -4.201783 21.757559 -1.638377 3.866428 2e-06 -6.338821 -1e-06 -1.697591 -22.591743 -6.194004 2e-06 -4e-06 -2e-06 44.53281 -78.642006 155.008041 40.909664 -58.355503 -1.026922 28.918236 -0.377499 -0.090268 -3.55226 1.91786 0.362192 22.182112 -20.375887 49.9333 -16.701815 -16.743528 28.47653 -4e-06 -12.6906 -2e-06 16.15258 -17.469925 2.710007 -0.105919 -1.513856 -4.275881 -5.039039 -5.612871 -2.953557 5e-06 -11.020523 -2e-06 -6.111297 -15.89533 -3.840469 0.0 -0.0 0.0 -10.283367 -5.680287 -4.341838 11.028295 -11.302406 -2.372635 -1.384268 -14.23858 -6.32012 -0.625436 -26.924187 -3.8276 -4.066764 -49.46801 -3.585248 -13.708523 -7.363475 -3.72094 18.141148 -14.052741 -3.242674 7e-06 -18.78727 -4e-06 -0.42971 -8.456041 2.555502 -1e-06 1e-06 -1e-06 -15.923532 -20.094482 -5.473587 30.41921 -7.190827 1.735928 3e-06 -8.162925 -1e-06 -1.8619 -22.861473 -6.167945 -1e-06 -4e-06 -2e-06 -176.157394 -4.713191 -6.215215 26.944801 -0.001179 -0.062927 -84.305801 4.17382 -6.504419 -9.430015 1.567743 2.052243 -0.999999 -0.0 0.0 5.379931 -9.388611 -8.200634 29.951557 0.026745 0.101129 -87.335899 -6.558234 -10.130733 -8.164457 0.821308 1.660456 -1.000002 0.0 0.0 
0.0 0.0 0.0 0.0 -0.0 0.0 -2.24419 97.024796 5.62138 92.138115 14.951427 89.949005 0.658004 -0.613154 0.23862 -10.497773 -0.674361 0.817177 27.711243 -2.784316 -1.926561 27.5672 3.913596 2.328991 -2.392504 -0.719402 -2.245266 -30.381628 1.177291 -4.080537 6e-06 -0.0 -0.0 0.013385 0.006318 -0.014703 0.057481 0.104674 0.004682 0.059455 -0.093345 -0.031448 -130.948425 -75.878967 148.683731 30.394684 -57.162224 -1.654313 32.562534 0.014381 0.28888 1.003369 -5.731155 11.770917 17.636627 -26.322733 52.411205 -19.466658 -14.395596 29.410393 0.0 -8.774821 -3e-06 15.990331 -18.467564 6.207482 -0.609778 -1.795655 -3.889329 -4.807091 -11.046811 -2.937849 4e-06 -20.976021 -2e-06 -5.019973 -25.033562 -4.031879 7e-06 3e-06 -2e-06 -10.634535 -5.686971 -3.565585 10.573272 -17.922951 -3.113901 3e-06 -13.821209 -1e-06 -0.501778 -31.181505 -4.027017 -11.566517 -59.869572 7.675701 -13.982714 -7.150198 -2.875041 13.772728 -8.401492 -3.218246 0.347734 -34.211555 0.771654 -0.963029 -17.73337 2.621018 -1e-06 -0.0 -1e-06 -17.346422 -20.095217 -4.20178 21.757561 -1.638377 3.866428 3e-06 -6.338824 -2e-06 -1.697588 -22.591745 -6.194006 0.0 -2e-06 -3e-06 44.711143 -78.817635 154.633087 40.883144 -58.299866 -1.470635 29.182062 -0.413805 -0.100976 -3.550427 1.97527 0.496673 22.182119 -20.375902 49.933327 -16.701817 -16.74353 28.476536 -4e-06 -12.690603 1e-06 16.191864 -17.502701 2.682922 -0.10592 -1.513855 -4.275883 -5.039042 -5.612873 -2.953556 4e-06 -11.020526 -1e-06 -6.111299 -15.895334 -3.84047 -0.0 0.0 0.0 -10.283373 -5.680288 -4.341839 11.028296 -11.302407 -2.372633 -1.384269 -14.23858 -6.320123 -0.625436 -26.924194 -3.827603 -4.06 -49.63102 -3.569412 -13.708527 -7.363478 -3.720942 18.141151 -14.052743 -3.242674 5e-06 -18.787271 -1e-06 -0.429712 -8.456045 2.555506 -0.0 1e-06 -1e-06 -15.923536 -20.094484 -5.473587 30.419222 -7.190831 1.735928 2e-06 -8.162929 -1e-06 -1.861902 -22.861473 -6.167941 -0.0 -4e-06 -1e-06 -176.082321 -4.731866 -6.268784 26.425795 0.005957 -0.013675 -84.069199 4.103632 -6.670706 -9.508543 1.596306 2.057426 -0.999998 -0.0 -0.0 5.372381 -9.276015 -8.072524 29.548882 0.028404 0.094276 -87.152153 -6.73548 -10.061143 -8.291608 0.799304 1.654859 -1.000002 1e-06 0.0 
0.0 0.0 0.0 0.0 -0.0 0.0 -2.300376 97.108009 5.620013 92.127075 14.709824 89.854782 0.716127 -0.601575 0.22151 -10.4683 -0.644359 0.839253 27.641212 -2.742629 -1.921504 27.682289 4.026373 2.349586 -2.413548 -0.709821 -2.334021 -29.997328 1.154142 -4.194357 6e-06 -0.0 0.0 0.007235 0.004316 -0.00861 0.032102 0.095876 0.011468 0.039668 -0.088802 -0.02681 -131.19043 -75.923134 148.889786 30.345766 -57.04007 -1.797032 32.770321 -0.102777 0.219428 0.797987 -6.002104 11.466896 17.636633 -26.322739 52.411194 -19.466661 -14.395598 29.410385 -0.0 -8.774822 -4e-06 16.04587 -18.466879 6.178653 -0.609776 -1.795654 -3.889326 -4.807089 -11.046811 -2.937849 5e-06 -20.976019 -2e-06 -5.01997 -25.03356 -4.031883 6e-06 -0.0 -0.0 -10.634532 -5.686968 -3.565584 10.573275 -17.922951 -3.1139 4e-06 -13.821208 0.0 -0.50178 -31.181505 -4.02701 -11.632169 -59.890549 7.726037 -13.982713 -7.150197 -2.875039 13.77273 -8.401492 -3.218244 0.347735 -34.211552 0.771656 -0.963029 -17.73337 2.62102 1e-06 1e-06 -0.0 -17.346418 -20.095215 -4.201778 21.757557 -1.638377 3.866426 2e-06 -6.338823 0.0 -1.697589 -22.591747 -6.194004 0.0 -2e-06 -3e-06 44.564613 -78.973328 154.535095 40.880966 -58.106976 -1.952207 29.500307 -0.446382 -0.12911 -3.56639 2.025071 0.531168 22.182117 -20.375898 49.933315 -16.701807 -16.743528 28.476522 -4e-06 -12.6906 -1e-06 16.210661 -17.504911 2.666072 -0.105919 -1.513857 -4.275882 -5.03904 -5.612869 -2.953553 4e-06 -11.02052 -3e-06 -6.111297 -15.895328 -3.840468 0.0 1e-06 -2e-06 -10.283371 -5.680288 -4.341836 11.028293 -11.302402 -2.372631 -1.384269 -14.238575 -6.32012 -0.625439 -26.924189 -3.827599 -4.037416 -49.659332 -3.59439 -13.708524 -7.363475 -3.720941 18.141148 -14.052738 -3.24267 6e-06 -18.787268 -2e-06 -0.42971 -8.456045 2.555504 -1e-06 2e-06 -0.0 -15.923536 -20.094479 -5.47358 30.419207 -7.190827 1.735928 1e-06 -8.162922 1e-06 -1.861901 -22.861467 -6.167941 -0.0 -4e-06 -1e-06 -176.125793 -4.743936 -6.333453 26.009462 0.008373 0.006586 -83.841164 4.024331 -6.760666 -9.546615 1.60819 2.060826 -0.999999 0.0 0.0 5.181522 -9.260384 -7.984693 29.27681 0.03597 0.083171 -86.925499 -6.807974 -10.076534 -8.33857 0.79132 1.650146 -1.000002 0.0 -0.0 
0.0 0.0 0.0 0.0 -0.0 0.0 -2.353754 97.200897 5.56393 92.08947 14.428391 89.733978 0.820206 -0.575706 0.205126 -10.437799 -0.621842 0.847337 27.582201 -2.664016 -1.889782 27.766249 4.120887 2.362921 -2.435361 -0.693077 -2.41489 -29.68586 1.137034 -4.255093 6e-06 -0.0 -1e-06 0.003808 0.003357 -0.012183 0.008106 0.089221 0.008757 0.019494 -0.084226 -0.032033 -131.455002 -75.965889 149.116272 30.419241 -56.907562 -1.964375 32.870308 -0.177218 0.183811 0.710948 -6.139977 11.117215 17.636625 -26.322729 52.411179 -19.466654 -14.395597 29.410378 1e-06 -8.774819 -2e-06 16.066628 -18.455824 6.173853 -0.609776 -1.795652 -3.889328 -4.807087 -11.046809 -2.937848 2e-06 -20.976013 -0.0 -5.019971 -25.033552 -4.031876 5e-06 2e-06 1e-06 -10.634533 -5.68697 -3.565584 10.573271 -17.922947 -3.1139 1e-06 -13.821206 0.0 -0.501782 -31.181505 -4.027011 -11.692038 -59.90897 7.761295 -13.982712 -7.150197 -2.875041 13.772727 -8.401489 -3.21824 0.347733 -34.211544 0.771657 -0.96303 -17.73337 2.621018 -0.0 -0.0 -0.0 -17.346413 -20.095211 -4.201779 21.757555 -1.638375 3.866426 1e-06 -6.338822 -1e-06 -1.69759 -22.591743 -6.194003 -0.0 -0.0 -2e-06 44.281242 -79.146286 154.60672 41.067265 -57.780682 -2.447663 29.846567 -0.410865 -0.133641 -3.579552 2.020205 0.438764 22.182112 -20.375898 49.933315 -16.701815 -16.74353 28.476528 -3e-06 -12.690601 -0.0 16.21323 -17.496677 2.661329 -0.105918 -1.513856 -4.275881 -5.039042 -5.612871 -2.953557 4e-06 -11.020523 -3e-06 -6.111297 -15.89533 -3.840471 -1e-06 1e-06 0.0 -10.28337 -5.680288 -4.341837 11.028293 -11.302404 -2.372632 -1.384268 -14.238579 -6.320123 -0.625438 -26.924187 -3.8276 -4.038519 -49.631599 -3.607182 -13.708522 -7.363475 -3.720941 18.141148 -14.052738 -3.242672 4e-06 -18.787268 -2e-06 -0.429712 -8.456043 2.555505 -1e-06 1e-06 -1e-06 -15.923536 -20.094482 -5.473583 30.41921 -7.190826 1.735927 0.0 -8.162922 -2e-06 -1.861903 -22.861473 -6.16794 1e-06 -4e-06 -2e-06 -176.238129 -4.7862 -6.451155 25.579729 0.006936 0.010649 -83.565422 3.966503 -6.828117 -9.589028 1.603686 2.058763 -0.999999 -0.0 0.0 4.987978 -9.178895 -8.015768 28.977867 0.046726 0.070237 -86.734894 -6.771265 -9.998209 -8.365971 0.785879 1.64578 -1.000001 -1e-06 0.0 
0.0 0.0 0.0 0.0 -0.0 0.0 -2.401822 97.303078 5.481746 92.018799 14.081396 89.587097 0.952551 -0.515393 0.201877 -10.402423 -0.595016 0.849182 27.546923 -2.558487 -1.866923 27.790625 4.207731 2.371113 -2.443568 -0.6658 -2.467092 -29.443958 1.108199 -4.299363 6e-06 0.0 -0.0 0.002605 0.003106 -0.009832 -0.004407 0.084537 0.011853 0.008784 -0.080005 -0.03119 -131.776779 -75.992165 149.379807 30.663004 -56.746986 -2.266023 32.842594 -0.252713 0.153997 0.720537 -6.161091 10.768679 17.636631 -26.322725 52.41119 -19.466665 -14.395596 29.410389 0.0 -8.774822 -3e-06 16.033342 -18.413031 6.202882 -0.609775 -1.795653 -3.889327 -4.807088 -11.046811 -2.937852 4e-06 -20.976017 -1e-06 -5.019969 -25.033556 -4.031881 6e-06 1e-06 -1e-06 -10.634534 -5.68697 -3.565588 10.573275 -17.922951 -3.113901 4e-06 -13.821209 -2e-06 -0.501777 -31.181505 -4.027017 -11.725301 -59.906601 7.827065 -13.982714 -7.150198 -2.875043 13.772729 -8.401491 -3.218243 0.347735 -34.211544 0.771652 -0.963029 -17.73337 2.621019 -0.0 0.0 -0.0 -17.346416 -20.095217 -4.201784 21.757559 -1.638375 3.866429 2e-06 -6.338822 0.0 -1.697589 -22.591745 -6.194007 -0.0 -0.0 -2e-06 43.815125 -79.325653 154.880463 41.457432 -57.285767 -3.061756 30.195789 -0.368016 -0.12159 -3.575117 1.991098 0.282943 22.182123 -20.375895 49.933327 -16.70182 -16.74353 28.476532 -4e-06 -12.690605 -0.0 16.191769 -17.497581 2.667459 -0.105919 -1.513857 -4.275882 -5.039042 -5.612873 -2.953557 4e-06 -11.020527 -4e-06 -6.111298 -15.895336 -3.840472 -0.0 -1e-06 0.0 -10.283373 -5.680288 -4.341838 11.028298 -11.302408 -2.37263 -1.384269 -14.238584 -6.320124 -0.625436 -26.924198 -3.827604 -4.046778 -49.603619 -3.606979 -13.708528 -7.363476 -3.720937 18.141157 -14.052742 -3.242677 6e-06 -18.787271 -4e-06 -0.429713 -8.456046 2.555507 -0.0 1e-06 -1e-06 -15.923539 -20.094492 -5.473588 30.419224 -7.190829 1.735927 2e-06 -8.162927 -2e-06 -1.861901 -22.861479 -6.167947 1e-06 -6e-06 -1e-06 -176.436356 -4.861034 -6.593073 25.153494 0.004541 0.010759 -83.272591 3.94205 -6.897122 -9.618811 1.593094 2.053417 -0.999999 0.0 0.0 4.717706 -9.08192 -8.117674 28.643555 0.054945 0.062723 -86.505211 -6.643086 -9.897364 -8.381465 0.783318 1.642633 -1.000002 -0.0 -0.0 
